<?xml version="1.0" encoding="UTF-8" standalone="no"?>
<!-- Created with Inkscape (http://www.inkscape.org/) -->

<svg
   version="1.1"
   id="svg1"
   width="227.52"
   height="210.24001"
   viewBox="0 0 227.52 210.24001"
   sodipodi:docname="ECRS_Logo_Minimal.svg"
   inkscape:version="1.4.2 (ebf0e940d0, 2025-05-08)"
   xmlns:inkscape="http://www.inkscape.org/namespaces/inkscape"
   xmlns:sodipodi="http://sodipodi.sourceforge.net/DTD/sodipodi-0.dtd"
   xmlns="http://www.w3.org/2000/svg"
   xmlns:svg="http://www.w3.org/2000/svg">
  <defs
     id="defs1" />
  <sodipodi:namedview
     id="namedview1"
     pagecolor="#ffffff"
     bordercolor="#000000"
     borderopacity="0.25"
     inkscape:showpageshadow="2"
     inkscape:pageopacity="0.0"
     inkscape:pagecheckerboard="0"
     inkscape:deskcolor="#d1d1d1"
     inkscape:zoom="3.9127578"
     inkscape:cx="149.38313"
     inkscape:cy="95.456969"
     inkscape:window-width="1671"
     inkscape:window-height="1050"
     inkscape:window-x="0"
     inkscape:window-y="0"
     inkscape:window-maximized="1"
     inkscape:current-layer="g1" />
  <g
     inkscape:groupmode="layer"
     inkscape:label="Image"
     id="g1">
    <g
       id="g2"
       transform="translate(-1.0525156,1.0525158)">
      <path
         style="fill:#cfebce"
         d="m 160.8,85.440002 c -0.32632,-0.528 -0.13581,-0.96 0.42335,-0.96 0.55916,0 1.01665,0.432 1.01665,0.96 0,0.528 -0.1905,0.96 -0.42334,0.96 -0.23284,0 -0.69034,-0.432 -1.01666,-0.96 z m -10.08,-9.6 c -0.86524,-0.559161 -0.98364,-0.936467 -0.29665,-0.9453 0.62884,-0.0081 1.41033,0.4173 1.73665,0.9453 0.73662,1.191864 0.40428,1.191864 -1.44,0 z m -10.56,-6.122453 c 0,-0.199349 0.756,-0.955349 1.68,-1.68 1.52262,-1.194116 1.55657,-1.160161 0.36246,0.362453 -1.25412,1.599118 -2.04246,2.10766 -2.04246,1.317547 z m 5.85019,-2.888881 c -0.88528,-1.06669 -0.88267,-1.538883 0.0115,-2.091528 0.69928,-0.432177 0.90469,-0.308868 0.52064,0.31254 -0.34887,0.564484 -0.0916,1.220089 0.57167,1.456899 0.66329,0.236811 0.94354,0.716148 0.62278,1.065194 -0.32076,0.349045 -1.09773,0.01465 -1.72661,-0.743105 z M 151.68,63.303345 c 0,-0.559161 0.432,-0.749665 0.96,-0.423343 0.528,0.326322 0.96,0.783817 0.96,1.016656 0,0.232839 -0.432,0.423344 -0.96,0.423344 -0.528,0 -0.96,-0.457496 -0.96,-1.016657 z m -20.16,-0.903343 c 0,-0.528 0.4575,-0.96 1.01666,-0.96 0.55916,0 0.74966,0.432 0.42334,0.96 -0.32632,0.528 -0.78381,0.96 -1.01665,0.96 -0.23284,0 -0.42335,-0.432 -0.42335,-0.96 z m 21.12,-1.802453 c 0,-0.592651 0.4034,-1.077547 0.89643,-1.077547 0.49304,0 0.70059,-1.08 0.46123,-2.400001 -0.23937,-1.32 -0.089,-2.4 0.33418,-2.4 1.39404,0 1.17952,4.572082 -0.271,5.775907 -0.99019,0.82178 -1.42084,0.852587 -1.42084,0.101641 z m -21.39413,-1.704453 c -0.34412,-0.556785 0.44079,-1.498246 1.74424,-2.092134 1.97742,-0.900975 2.36989,-0.827721 2.36989,0.44233 0,0.928144 -0.53773,1.315781 -1.37797,0.993349 -0.75789,-0.290829 -1.5428,-0.03433 -1.74424,0.570007 -0.24949,0.748452 -0.56575,0.776015 -0.99192,0.08645 z M 139.98,55.024212 c 0.693,-0.277316 1.521,-0.243211 1.84,0.07579 0.319,0.319 -0.248,0.545895 -1.26,0.504211 -1.11834,-0.04606 -1.34582,-0.273543 -0.58,-0.580001 z m 10.5,-0.006 c -0.924,-0.241467 -1.68,-0.864849 -1.68,-1.385295 0,-0.520446 0.45093,-0.667579 1.00206,-0.326963 0.55112,0.340617 1.73912,0.04211 2.64,-0.663343 1.43983,-1.127504 1.4938,-1.097788 0.44627,0.245682 -0.65542,0.840581 -0.90742,1.812581 -0.56,2.16 0.34742,0.347419 0.45167,0.581559 0.23167,0.52031 -0.22,-0.06125 -1.156,-0.308925 -2.08,-0.550391 z m -5.45252,-1.794763 c 0.15266,-2.044124 1.56054,-4.552579 2.08179,-3.709176 0.30826,0.498776 -0.0492,1.74067 -0.7944,2.759763 -0.74518,1.019094 -1.3245,1.446329 -1.28739,0.949413 z M 140.64,51.840001 c 0.32632,-0.528 0.78382,-0.96 1.01666,-0.96 0.23284,0 0.42334,0.432 0.42334,0.96 0,0.528 -0.45749,0.96 -1.01665,0.96 -0.55916,0 -0.74967,-0.432 -0.42335,-0.96 z"
         id="path27" />
      <path
         style="fill:#a0dff7"
         d="m 93.120002,73.383346 c 0,-0.823161 0.439046,-1.225311 0.975659,-0.893666 0.536613,0.331645 0.727118,1.00514 0.423344,1.496656 -0.82295,1.331562 -1.399003,1.083275 -1.399003,-0.60299 z M 79.255333,73.04953 c -0.295889,-0.478759 0.326615,-0.644374 1.383344,-0.368034 2.241588,0.586189 2.524941,1.238506 0.537981,1.238506 -0.760839,0 -1.625435,-0.391712 -1.921325,-0.870472 z m 20.145666,-2.903194 c -0.303774,-0.491516 -0.185269,-1.120513 0.263343,-1.397771 0.448618,-0.277258 0.815658,0.124892 0.815658,0.893666 0,1.618721 -0.30272,1.760152 -1.079001,0.504105 z M 72.202152,59.963486 c -1.022732,-1.159582 -0.981024,-1.403484 0.24,-1.403484 0.812817,0 1.477849,0.648 1.477849,1.44 0,1.75072 -0.144241,1.747654 -1.717849,-0.03652 z m 38.273638,-9.643485 c 0.0461,-1.118345 0.27354,-1.345823 0.58,-0.58 0.27732,0.693 0.24321,1.521 -0.0758,1.84 -0.319,0.319 -0.54589,-0.248 -0.50421,-1.26 z M 74.870177,46.548163 c -0.984225,-1.185918 -1.489299,-1.229876 -2.757547,-0.24 -1.372016,1.070869 -1.402795,1.020545 -0.264589,-0.432607 1.151033,-1.469529 1.51658,-1.4947 3.436632,-0.236633 1.181727,0.774297 2.50737,1.082297 2.945874,0.684445 0.438503,-0.397852 0.486523,-0.183367 0.10671,0.476633 -0.916719,1.592982 -2.001404,1.514194 -3.46708,-0.251838 z"
         id="path26" />
      <path
         style="fill:#f7d0a3"
         d="m 179.39755,71.280002 c -1.19412,-1.522614 -1.16016,-1.556569 0.36245,-0.362453 0.924,0.724651 1.68,1.480651 1.68,1.68 0,0.790113 -0.78833,0.281571 -2.04245,-1.317547 z M 196.62,57.904212 c 0.693,-0.277316 1.521,-0.24321 1.84,0.07579 0.319,0.319 -0.248,0.545894 -1.26,0.50421 -1.11834,-0.04606 -1.34582,-0.273543 -0.58,-0.58 z m -2.15828,-7.305614 c 0.36051,-0.946771 0.89731,-1.479571 1.19288,-1.184 0.29557,0.295572 6.1e-4,1.070203 -0.65547,1.721403 -0.94811,0.941057 -1.05838,0.830788 -0.53741,-0.537403 z m 10.44103,-11.958597 c -1.21151,-1.861614 -1.29393,-2.292923 -0.27956,-1.462842 1.01612,0.831518 1.73823,0.877427 2.4593,0.156353 0.72108,-0.721073 1.21451,-0.707383 1.68052,0.04663 0.37452,0.605987 0.11011,0.953399 -0.61165,0.803647 -0.70581,-0.146444 -1.21204,0.483543 -1.13802,1.416214 0.17927,2.25878 -0.0979,2.132712 -2.11059,-0.96 z m -5.22275,-5.04 c -1.23062,-0.795289 -1.19572,-0.932737 0.24,-0.9453 0.924,-0.0081 1.68,0.4173 1.68,0.9453 0,1.170826 -0.10827,1.170826 -1.92,0 z M 182.4,31.623345 c 0,-0.559161 0.432,-0.749666 0.96,-0.423344 0.528,0.326322 0.96,0.783817 0.96,1.016656 0,0.232839 -0.432,0.423344 -0.96,0.423344 -0.528,0 -0.96,-0.457496 -0.96,-1.016656 z m 2.88,-11.406688 c 0,-0.496839 0.42706,-1.167276 0.94901,-1.48986 0.54418,-0.336326 0.70512,0.04901 0.37729,0.903343 -0.6382,1.663121 -1.3263,1.967412 -1.3263,0.586517 z m 7.68,-0.96 c 0,-0.496839 0.42706,-1.167276 0.94901,-1.48986 0.54418,-0.336326 0.70512,0.04902 0.37729,0.903343 -0.6382,1.663121 -1.3263,1.967412 -1.3263,0.586517 z M 196.32,17.28 c 0.32633,-0.528 0.78382,-0.96 1.01666,-0.96 0.23284,0 0.42334,0.432 0.42334,0.96 0,0.528 -0.45749,0.96 -1.01665,0.96 -0.55916,0 -0.74967,-0.432 -0.42335,-0.96 z"
         id="path24" />
      <path
         style="fill:#f69dd1"
         d="m 5.9827227,67.200002 c 0,-1.848 0.1975635,-2.604 0.4390299,-1.68 0.2414665,0.924 0.2414665,2.436 0,3.36 -0.2414664,0.924 -0.4390299,0.168 -0.4390299,-1.68 z m 17.6972773,-1.6 c -0.866994,-0.866995 -0.812258,-3.940227 0.08,-4.491672 0.396,-0.244742 0.72,0.809763 0.72,2.343344 0,1.53358 -0.036,2.788328 -0.08,2.788328 -0.044,0 -0.368,-0.288 -0.72,-0.64 z m 22.833199,-3.275727 c -0.243289,-0.39365 0.195211,-0.622154 0.974443,-0.507787 2.006009,0.29442 2.727505,1.223514 0.95013,1.223514 -0.815226,0 -1.681284,-0.322077 -1.924573,-0.715727 z M 15.43579,54.160001 c 0.04606,-1.118345 0.273542,-1.345823 0.58,-0.58 0.277316,0.693 0.24321,1.521 -0.07579,1.84 -0.319,0.319 -0.545894,-0.248 -0.50421,-1.26 z m 4.875789,-0.4 c 0,-1.32 0.217895,-1.86 0.484211,-1.2 0.266316,0.66 0.266316,1.74 0,2.4 -0.266316,0.66 -0.484211,0.12 -0.484211,-1.2 z m -12.5557894,-0.56 c 0.046065,-1.118345 0.2735427,-1.345823 0.58,-0.58 0.2773158,0.693 0.2432106,1.521 -0.075789,1.84 -0.3190001,0.319 -0.5458948,-0.248 -0.504211,-1.26 z m 24.4452074,0.626335 c -0.303773,-0.491516 -0.185269,-1.120513 0.263344,-1.397771 0.448613,-0.277258 0.81566,0.124892 0.81566,0.893666 0,1.61872 -0.302724,1.760151 -1.079004,0.504105 z M 20.64,44.160001 c 0.326322,-0.528 1.025313,-0.96 1.553313,-0.96 0.528,0 0.693009,0.432 0.366687,0.96 -0.326322,0.528 -1.025312,0.96 -1.553312,0.96 -0.528,0 -0.69301,-0.432 -0.366688,-0.96 z m -5.698278,-2.201403 c 0.36051,-0.946771 0.897304,-1.479572 1.192875,-1.184 0.295572,0.295572 6.09e-4,1.070203 -0.655473,1.721403 -0.948111,0.941057 -1.05838,0.830788 -0.537402,-0.537403 z M 17.28,39.94271 c 0,-0.20751 0.670437,-0.634561 1.489861,-0.949004 0.854328,-0.327836 1.239669,-0.166894 0.903343,0.377291 C 19.109437,40.283192 17.28,40.720227 17.28,39.94271 Z m 38.587152,-2.022709 c 0.01956,-1.584 0.234718,-2.115778 0.47812,-1.181729 0.243402,0.934048 0.227395,2.230048 -0.03557,2.88 -0.262966,0.649951 -0.462113,-0.114271 -0.442548,-1.698271 z M 21.12,38.98271 c 0,-0.20751 0.670438,-0.634561 1.489861,-0.949004 0.854328,-0.327836 1.239669,-0.166894 0.903343,0.377291 C 22.949437,39.323192 21.12,39.760227 21.12,38.98271 Z m 16.334701,-2.262709 c 0.01145,-2.05722 0.22013,-2.32212 0.9453,-1.2 0.766242,1.185676 0.933195,1.199805 0.945299,0.08 0.0081,-0.748 0.292261,-1.08244 0.631501,-0.743199 0.339241,0.33924 0.10521,1.23323 -0.520068,1.986644 -0.882621,1.063492 -0.859541,1.481118 0.103199,1.867409 0.788608,0.316422 0.628446,0.525159 -0.439931,0.573357 -1.214407,0.05479 -1.675926,-0.655858 -1.6653,-2.564211 z m -10.185912,-0.01654 c 2.169481,-2.54277 2.171212,-2.543331 2.171212,-0.703456 0,0.792 -0.212252,1.227748 -0.471672,0.968329 -0.259419,-0.259419 -1.159419,0.05714 -2,0.703456 -0.936433,0.720021 -0.82007,0.345004 0.30046,-0.968329 z m 4.155212,-1.30258 c 0.6512,-0.656082 1.425831,-0.951045 1.721403,-0.655473 0.295571,0.295571 -0.237229,0.832366 -1.184,1.192876 -1.368191,0.520977 -1.47846,0.410708 -0.537403,-0.537403 z m 9.856,-1.40085 c -2.26491,-1.256762 -2.2842,-1.332518 -0.342709,-1.345874 1.131509,-0.0078 2.305951,0.633848 2.60987,1.425848 0.303919,0.792 0.458138,1.397643 0.342709,1.345874 -0.115428,-0.05177 -1.28987,-0.693401 -2.60987,-1.425848 z"
         id="path23" />
      <path
         style="fill:#e1be9a"
         d="m 191.561,19.266335 c -0.30377,-0.491516 -0.18527,-1.120513 0.26334,-1.397771 0.44862,-0.277258 0.81566,0.124892 0.81566,0.893666 0,1.61872 -0.30272,1.760151 -1.079,0.504105 z"
         id="path22" />
      <path
         style="fill:#a1d89f"
         d="m 176.22172,91.481405 c -0.52097,-1.36819 -0.4107,-1.478459 0.53741,-0.537403 0.65608,0.6512 0.95104,1.425832 0.65547,1.721403 -0.29557,0.295572 -0.83237,-0.237228 -1.19288,-1.184 z M 134.4,89.280002 c 0,-0.528 0.4575,-0.96 1.01666,-0.96 0.55916,0 0.74966,0.432 0.42334,0.96 -0.32632,0.528 -0.78381,0.96 -1.01665,0.96 -0.23284,0 -0.42335,-0.432 -0.42335,-0.96 z m 26.89211,-10.532204 c -1.13119,-0.715203 -0.99539,-0.870224 0.65349,-0.746018 1.14476,0.08623 1.86982,0.49911 1.61124,0.917504 -0.57487,0.93016 -0.5152,0.934679 -2.26473,-0.171486 z M 145.92,70.677549 c 0,-0.199349 0.756,-0.955349 1.68,-1.68 1.52262,-1.194116 1.55657,-1.160161 0.36246,0.362453 -1.25412,1.599118 -2.04246,2.10766 -2.04246,1.317547 z m -0.96,-3.534204 c 0,-0.559161 0.432,-0.749665 0.96,-0.423343 0.528,0.326322 0.96,0.783817 0.96,1.016656 0,0.232839 -0.432,0.423344 -0.96,0.423344 -0.528,0 -0.96,-0.457496 -0.96,-1.016657 z m 3.36,-0.903343 c 0.32632,-0.528 0.78382,-0.96 1.01666,-0.96 0.23284,0 0.42334,0.432 0.42334,0.96 0,0.528 -0.45749,0.96 -1.01665,0.96 -0.55916,0 -0.74967,-0.432 -0.42335,-0.96 z m -12,-9.032583 c 0,-0.182778 0.648,-0.870116 1.44,-1.527418 0.83001,-0.688846 1.44,-0.782148 1.44,-0.220256 0,0.536161 -0.648,1.223499 -1.44,1.527418 -0.792,0.303919 -1.44,0.403034 -1.44,0.220256 z m 15.84,-0.567418 c 0.32632,-0.528 0.78382,-0.96 1.01666,-0.96 0.23284,0 0.42334,0.432 0.42334,0.96 0,0.528 -0.45749,0.960001 -1.01665,0.960001 -0.55916,0 -0.74967,-0.432001 -0.42335,-0.960001 z m -19.00847,-2.247056 c -0.27164,-0.707881 -0.10847,-1.895881 0.36259,-2.64 0.62333,-0.984642 0.86048,-0.634275 0.87118,1.287056 0.016,2.866784 -0.45477,3.382987 -1.23377,1.352944 z m 35.88426,-0.232944 c 0.0461,-1.118345 0.27355,-1.345823 0.58,-0.58 0.27732,0.693 0.24321,1.521 -0.0758,1.84 -0.319,0.319 -0.54589,-0.248 -0.50421,-1.26 z m -17.35579,-2.32 c 0,-0.528 0.4575,-0.96 1.01666,-0.96 0.55916,0 0.74966,0.432 0.42334,0.96 -0.32632,0.528 -0.78381,0.96 -1.01665,0.96 -0.23284,0 -0.42335,-0.432 -0.42335,-0.96 z m -3.36,-1.92 c -0.32632,-0.528 -0.16131,-0.96 0.36669,-0.96 0.528,0 1.22699,0.432 1.55331,0.96 0.32632,0.528 0.16132,0.96 -0.36668,0.96 -0.528,0 -1.227,-0.432 -1.55332,-0.96 z"
         id="path21" />
      <path
         style="fill:#5cc9f3"
         d="m 71.428789,89.040002 -1.828788,-2.16 2.4,1.90977 c 1.32,1.050373 2.58,2.022373 2.8,2.16 0.22,0.137627 -0.03704,0.25023 -0.571212,0.25023 -0.534166,0 -1.794166,-0.972 -2.8,-2.16 z m 28.990101,-18.8 c -0.27194,-0.44 0.11556,-0.8 0.86111,-0.8 0.74555,0 1.13305,0.36 0.86112,0.8 -0.27194,0.44 -0.65944,0.8 -0.86112,0.8 -0.20168,0 -0.58918,-0.36 -0.86111,-0.8 z m 6.2169,-6.48 c 0.0461,-1.118346 0.27354,-1.345824 0.58,-0.58 0.27732,0.693 0.24321,1.521 -0.0758,1.84 -0.319,0.319 -0.54589,-0.248 -0.50421,-1.26 z M 67.474575,57.120001 c 0.0072,-2.64 0.193644,-3.60606 0.414304,-2.1468 0.22066,1.45926 0.214764,3.61926 -0.0131,4.8 -0.227867,1.18074 -0.408407,-0.0132 -0.4012,-2.6532 z m 5.561216,-0.08 c 0.04606,-1.118345 0.273543,-1.345823 0.58,-0.58 0.277316,0.693 0.24321,1.521001 -0.07579,1.840001 -0.319,0.319 -0.545894,-0.248 -0.50421,-1.260001 z m 7.124211,-11.92 c 0.955666,-1.056 1.953576,-1.92 2.217576,-1.92 0.264,0 -0.30191,0.864 -1.257576,1.92 -0.955667,1.056 -1.953577,1.92 -2.217577,1.92 -0.264,0 0.30191,-0.864 1.257577,-1.92 z m -5.204211,-0.206223 c -0.04168,-0.905423 0.89621,-2.117255 2.08421,-2.69296 1.832259,-0.887913 1.928721,-0.856622 0.63574,0.206224 -0.838343,0.689127 -1.776237,1.900959 -2.08421,2.692959 -0.453923,1.167334 -0.574301,1.128286 -0.63574,-0.206223 z m 36.691889,-7.473777 c 0,-2.904 0.17997,-4.092 0.39993,-2.64 0.21996,1.452 0.21996,3.828 0,5.28 -0.21996,1.452 -0.39993,0.264 -0.39993,-2.64 z m -30.465957,0.678597 c 0.36051,-0.946772 0.897304,-1.479572 1.192876,-1.184 0.295571,0.295572 6.08e-4,1.070203 -0.655473,1.721403 -0.948111,0.941057 -1.058381,0.830788 -0.537403,-0.537403 z m 3.819275,-0.612263 c -0.303773,-0.491516 -0.185269,-1.120513 0.263344,-1.397771 0.448613,-0.277257 0.81566,0.124892 0.81566,0.893666 0,1.618721 -0.302724,1.760152 -1.079004,0.504105 z"
         id="path20" />
      <path
         style="fill:#f7ac5e"
         d="m 190.8,58.884212 c 0.66,-0.266316 1.74,-0.266316 2.4,0 0.66,0.266316 0.12,0.484211 -1.2,0.484211 -1.32,0 -1.86,-0.217895 -1.2,-0.484211 z m 26.23579,-21.044211 c 0.0461,-1.118345 0.27355,-1.345823 0.58,-0.58 0.27732,0.693 0.24321,1.521 -0.0758,1.84 -0.319,0.319 -0.54589,-0.248 -0.50421,-1.26 z m -22.53145,-4.071174 c -0.33861,-0.547886 -0.14787,-1.285266 0.42387,-1.638622 1.42666,-0.881721 1.93172,-0.180481 0.9796,1.36009 -0.51009,0.825341 -1.00484,0.923528 -1.40347,0.278532 z m -18.74855,-1.688826 c 0.0461,-1.118345 0.27355,-1.345824 0.58,-0.58 0.27732,0.693 0.24321,1.521 -0.0758,1.84 -0.319,0.319 -0.54589,-0.248 -0.50421,-1.26 z m 29.26594,-11.638598 c -0.52098,-1.36819 -0.41071,-1.478459 0.5374,-0.537402 0.65608,0.6512 0.95104,1.425831 0.65547,1.721403 -0.29557,0.295571 -0.83236,-0.237229 -1.19287,-1.184001 z M 219.14147,18.24 c 0,-2.376 0.18722,-3.348 0.41604,-2.16 0.22882,1.188 0.22882,3.132001 0,4.320001 -0.22882,1.188 -0.41604,0.216 -0.41604,-2.160001 z M 187.68,20.160001 c -0.32632,-0.528 -0.13581,-0.96 0.42335,-0.96 0.55916,0 1.01665,0.432 1.01665,0.96 0,0.528 -0.1905,0.96 -0.42334,0.96 -0.23284,0 -0.69033,-0.432 -1.01666,-0.96 z"
         id="path18" />
      <path
         style="fill:#f15ab3"
         d="M 20.115997,72.877781 C 19.526642,71.77656 19.295442,70.62456 19.602221,70.317781 19.909,70.011003 20.16,70.233145 20.16,70.81143 c 0,0.578286 0.678858,1.730286 1.508572,2.56 0.829714,0.829715 1.060914,1.508572 0.513776,1.508572 -0.547137,0 -1.476995,-0.900999 -2.066351,-2.002221 z m 16.566154,-2.220954 c 0.680817,-0.738747 1.389108,-1.199488 1.57398,-1.02387 0.569422,0.54092 -0.873733,2.367045 -1.870636,2.367045 -0.517656,0 -0.384161,-0.604429 0.296656,-1.343175 z m 6.33785,-1.232615 c 0.693,-0.277315 1.521,-0.24321 1.84,0.07579 0.319,0.319 -0.248,0.545895 -1.26,0.50421 -1.118345,-0.04606 -1.345824,-0.273542 -0.58,-0.58 z m 0.03051,-5.414389 c -1.401238,-1.065917 -1.088573,-1.441389 2.640001,-3.170321 2.326217,-1.078662 4.229486,-1.600821 4.229486,-1.160352 0,0.440468 -0.461112,0.800852 -1.024692,0.800852 -0.597616,0 -0.778568,0.900255 -0.434161,2.16 0.485133,1.774482 0.411413,1.876088 -0.413045,0.569283 -0.619257,-0.981552 -1.747455,-1.396189 -2.946072,-1.082743 -1.526347,0.399149 -1.707314,0.791349 -0.844716,1.830717 1.352562,1.629737 0.89285,1.64976 -1.206801,0.05256 z m 10.970957,-9.289822 c 0,-2.376 0.187215,-3.348 0.416034,-2.16 0.228818,1.188 0.228818,3.132 0,4.32 -0.228819,1.188001 -0.416034,0.216 -0.416034,-2.16 z M 13.44,46.080001 c 0,-0.528 0.457496,-0.96 1.016657,-0.96 0.559161,0 0.749665,0.432 0.423343,0.96 -0.326322,0.528 -0.783817,0.96 -1.016656,0.96 -0.232839,0 -0.423344,-0.432 -0.423344,-0.96 z m 0.578886,-2.72 c -0.271935,-0.44 0.134569,-0.8 0.903343,-0.8 0.768774,0 1.397771,0.36 1.397771,0.8 0,0.44 -0.406504,0.8 -0.903343,0.8 -0.496839,0 -1.125836,-0.36 -1.397771,-0.8 z m 19.661115,-2.351649 c 0.22,-0.149407 1.264,-0.905407 2.32,-1.68 1.776006,-1.302729 1.821188,-1.282356 0.602453,0.271649 -0.724651,0.924 -1.768651,1.68 -2.32,1.68 -0.551349,0 -0.822453,-0.122242 -0.602453,-0.271649 z m 8.56,-5.328351 c 0,-0.44 0.648,-0.8 1.44,-0.8 0.792,0 1.44,0.36 1.44,0.8 0,0.44 -0.648,0.8 -1.44,0.8 -0.792,0 -1.44,-0.36 -1.44,-0.8 z m 1.44,-3.04 c -0.326322,-0.528 -0.135817,-0.96 0.423344,-0.96 0.55916,0 1.016656,0.432 1.016656,0.96 0,0.528 -0.190505,0.96 -0.423344,0.96 -0.232839,0 -0.690334,-0.432 -1.016656,-0.96 z"
         id="path17" />
      <path
         style="fill:#f5942e"
         d="m 196.62,48.304212 c 0.693,-0.277316 1.521,-0.243211 1.84,0.07579 0.319,0.319 -0.248,0.545895 -1.26,0.504211 -1.11834,-0.04606 -1.34582,-0.273543 -0.58,-0.580001 z m 15.54,-6.007555 c 0,-0.496839 0.42706,-1.167276 0.94901,-1.48986 0.54418,-0.336325 0.70513,0.04902 0.37729,0.903344 -0.6382,1.66312 -1.3263,1.967411 -1.3263,0.586516 z M 187.52,38.92223 c 0,-0.768774 0.36705,-1.170923 0.81566,-0.893666 0.44862,0.277258 0.56712,0.906255 0.26335,1.397771 -0.77628,1.256047 -1.07901,1.114616 -1.07901,-0.504105 z m -15.49285,-5.802229 c 0.0196,-1.584 0.23472,-2.115778 0.47812,-1.18173 0.24341,0.934049 0.2274,2.230049 -0.0356,2.880001 -0.26296,0.649951 -0.46211,-0.114271 -0.44255,-1.698271 z M 185.28,28.42271 c 0,-0.20751 0.67044,-0.634562 1.48986,-0.949004 0.85433,-0.327836 1.23967,-0.166895 0.90335,0.377291 -0.56377,0.912195 -2.39321,1.34923 -2.39321,0.571713 z m 20.70173,-9.901307 c -0.52098,-1.36819 -0.41071,-1.478459 0.5374,-0.537403 0.65608,0.6512 0.95104,1.425832 0.65547,1.721403 -0.29557,0.295572 -0.83236,-0.237228 -1.19287,-1.184 z"
         id="path16" />
      <path
         style="fill:#71c46d"
         d="m 129.47755,102 c -1.21874,-1.554 -1.17355,-1.57438 0.60245,-0.27165 1.056,0.7746 2.1,1.5306 2.32,1.68 0.22,0.14941 -0.0511,0.27165 -0.60245,0.27165 -0.55135,0 -1.59535,-0.756 -2.32,-1.68 z m 14.96298,-31.023868 c -0.34803,-0.563129 -0.4269,-1.22976 -0.17525,-1.481403 0.25164,-0.251643 0.71334,0.209098 1.026,1.02387 0.64913,1.691623 0.0959,1.989176 -0.85075,0.457533 z m 22.78662,-1.37613 c 0.0196,-1.584 0.23472,-2.115778 0.47812,-1.18173 0.24341,0.934049 0.2274,2.230049 -0.0356,2.88 -0.26296,0.649952 -0.46211,-0.11427 -0.44255,-1.69827 z m -16.02715,-4.32 c 0.32632,-0.528 0.78382,-0.96 1.01666,-0.96 0.23284,0 0.42334,0.432 0.42334,0.96 0,0.528 -0.45749,0.96 -1.01665,0.96 -0.55916,0 -0.74967,-0.432 -0.42335,-0.96 z m 17.98273,-15.360001 c 0,-1.848 0.19756,-2.604 0.43903,-1.68 0.24146,0.924 0.24146,2.436 0,3.36 -0.24147,0.924 -0.43903,0.168 -0.43903,-1.68 z"
         id="path14" />
      <path
         style="fill:#01aced"
         d="m 70.185344,86.853311 c -5.888329,-6.706436 -7.316013,-10.661858 -6.920486,-19.173309 0.19629,-4.224 0.405998,-11.606719 0.466017,-16.406041 0.106591,-8.523302 0.02734,-8.849158 -3.411145,-14.025151 L 56.799458,31.949698 79.99973,26.028303 c 12.76015,-3.256767 23.73153,-5.909449 24.38085,-5.894849 0.64932,0.0146 2.51633,2.294547 4.1489,5.066547 l 2.96832,5.04 -0.62567,12.48 c -1.05624,21.068128 -0.58439,24.190162 4.85,32.090381 2.29707,3.339344 2.98312,5.025514 2.14686,5.276528 -0.67594,0.202894 -1.98499,0.612784 -2.90899,0.910866 -1.17317,0.378463 -1.68,0.02717 -1.68,-1.164419 0,-0.938512 -0.63426,-2.544954 -1.40947,-3.569871 -1.3413,-1.773362 -1.41165,-1.724201 -1.4547,1.016516 -0.0623,3.966149 -1.22428,5.454955 -4.45826,5.712174 -1.51666,0.12063 -3.40557,0.486414 -4.19757,0.812854 -3.347423,1.379714 -13.577847,3.58309 -14.368291,3.094569 -0.472471,-0.292004 -1.130384,-0.09187 -1.462029,0.444744 -0.331645,0.536613 -1.884188,0.975659 -3.450096,0.975659 -2.153584,0 -3.069373,-0.584611 -3.759583,-2.4 -1.413837,-3.718673 -3.209761,-3.018775 -2.463338,0.96 0.544569,2.902804 0.376697,3.36 -1.233713,3.36 -1.025228,0 -3.202151,-1.524011 -4.837606,-3.386691 z M 96.000002,71.2593 c 0,-0.991998 0.728505,-1.263864 2.486295,-0.927841 3.973973,0.759674 7.910183,-1.763581 8.615423,-5.522798 0.87472,-4.66268 0.002,-5.358716 -4.09915,-3.268003 -1.96269,1.000639 -4.103728,1.819344 -4.75785,1.819344 -0.654122,0 -1.573614,0.686707 -2.043314,1.526015 -0.469701,0.839309 -1.144025,1.445456 -1.498498,1.346994 -0.354472,-0.09846 -3.211655,0.118928 -6.349294,0.48309 -7.293809,0.846536 -11.953889,-0.59316 -13.328741,-4.117814 -1.624356,-4.164297 -1.666513,-7.428256 -0.134233,-10.392831 1.703277,-3.295412 2.074065,-3.691833 7.768234,-8.305269 4.45051,-3.605819 7.319638,-4.417676 9.148599,-2.588715 0.545309,0.54531 1.711709,0.71509 2.592,0.377291 2.075775,-0.796549 2.139611,-5.756478 0.08424,-6.545199 -1.917025,-0.735631 -9.156789,0.376815 -8.575313,1.317664 0.238425,0.385779 -0.590912,0.505587 -1.842969,0.266241 -1.625257,-0.310687 -2.440453,0.08149 -2.849716,1.370967 -0.559895,1.764075 -6.335713,5.885694 -6.335713,4.52116 0,-1.273893 -6.233117,6.550493 -6.864307,8.616715 -0.941884,3.08329 -0.924242,9.056358 0.0323,10.936717 0.466397,0.916835 1.403396,2.854974 2.08222,4.306974 0.678824,1.452 1.763007,2.64 2.409296,2.64 0.646288,0 1.423731,0.648 1.72765,1.44 0.303919,0.792 1.343738,1.44 2.310709,1.44 0.966971,0 2.169381,0.411251 2.672021,0.913892 1.088407,1.088406 7.767804,1.668413 8.682289,0.753928 0.352019,-0.352019 1.530928,-0.01603 2.6198,0.746648 1.743922,1.22149 2.186348,1.199728 3.713893,-0.182681 C 95.219643,73.368639 96,72.031019 96,71.2593 Z M 75.840001,44.583345 c 0,-0.823161 0.432,-1.229666 0.96,-0.903344 0.528,0.326322 0.96,0.999817 0.96,1.496656 0,0.49684 -0.432,0.903344 -0.96,0.903344 -0.528,0 -0.96,-0.673495 -0.96,-1.496656 z"
         id="path13" />
      <path
         style="fill:#f48612"
         d="m 178.08,68.435016 c -7.75593,-9.600192 -8.93111,-14.13194 -6.84285,-26.387543 0.83665,-4.91011 1.25246,-10.655472 0.92403,-12.767472 -0.55089,-3.542589 -3.51611,-10.190029 -6.29579,-14.113955 -0.63661,-0.898676 -0.95676,-1.806673 -0.71143,-2.017773 0.5406,-0.46518 45.1702,-11.6921829 46.51628,-11.7016148 0.52263,-0.00366 2.39815,2.3693419 4.16783,5.273342 L 219.05568,12 218.30713,23.040001 c -1.43879,21.22005 -0.86359,25.095341 4.93375,33.240058 l 3.33114,4.679943 -4.08601,1.03366 c -4.07538,1.030972 -4.091,1.02473 -6.00601,-2.4 l -1.92,-3.433661 -0.29052,3.98434 -0.29052,3.98434 -13.09681,3.092584 c -14.12071,3.33436 -15.84679,3.195513 -16.38591,-1.318091 -0.44262,-3.705641 -1.91443,-3.10999 -2.61135,1.056828 -0.33117,1.98 -0.67474,3.923964 -0.7635,4.319919 -0.0888,0.395956 -1.45739,-0.884251 -3.04139,-2.844905 z m 18.96,-9.925492 c 1.98,-0.549874 3.6,-1.411464 3.6,-1.914646 0,-0.503182 0.648,-0.914877 1.44,-0.914877 0.792,0 1.44,-0.385167 1.44,-0.855928 0,-0.47076 1.08,-1.126991 2.4,-1.45829 1.32,-0.331299 2.4,-1.242131 2.4,-2.024072 0,-0.78194 0.60178,-1.42171 1.33729,-1.42171 1.50068,0 2.79762,-2.586172 1.96917,-3.926632 -0.29687,-0.480352 -0.13263,-0.873368 0.36497,-0.873368 1.34508,0 2.07284,-5.093204 0.92591,-6.48 -0.54583,-0.66 -1.70753,-1.2 -2.58153,-1.2 -0.87401,0 -2.29608,-0.825684 -3.16015,-1.834852 -1.62539,-1.898319 -11.54305,-4.5036 -13.21365,-3.47111 -1.0665,0.659135 -6.76201,-2.015278 -6.76201,-3.175207 0,-3.037693 7.8842,-6.618505 11.74493,-5.334261 4.23157,1.407603 5.97772,0.941091 7.23063,-1.931788 1.04525,-2.39671 0.98388,-3.043216 -0.438,-4.614378 -1.191,-1.316044 -2.33666,-1.64869 -4.09555,-1.189158 -1.34311,0.3509 -4.14915,0.814881 -6.23567,1.031069 -2.08651,0.216187 -4.08621,0.866438 -4.44379,1.445002 -0.46631,0.75451 -0.75084,0.756717 -1.00634,0.0078 -0.58725,-1.721373 -4.67621,-0.08734 -4.67621,1.868714 0,1.172177 -0.4822,1.592868 -1.41533,1.234792 -1.6616,-0.637617 -3.11623,0.702621 -6.15722,5.673031 -2.8443,4.648911 -2.19316,7.97054 1.73145,8.832528 1.54039,0.338326 3.01731,1.179595 3.28205,1.869486 0.57284,1.492802 4.8412,2.471133 6.44819,1.477959 0.62329,-0.385215 2.27122,-0.109542 3.66206,0.612607 1.39084,0.722149 3.25167,1.083973 4.13518,0.804054 0.88351,-0.279918 3.08224,0.282071 4.88607,1.248866 2.64089,1.415434 3.03709,1.984431 2.03414,2.921325 -0.68505,0.639934 -1.61464,1.163516 -2.06575,1.163516 -0.45111,0 -2.60848,0.864 -4.79415,1.92 -2.18566,1.056 -4.42681,1.92 -4.98031,1.92 -0.55351,0 -1.00638,0.838505 -1.00638,1.863344 0,1.024839 -0.432,2.130334 -0.96,2.456656 -0.528,0.326322 -0.96,1.647818 -0.96,2.936657 0,2.675436 1.92134,2.998779 7.92,1.332866 z"
         id="path12" />
      <path
         style="fill:#eb018b"
         d="m 17.28,85.920002 c -0.657301,-0.792 -1.745163,-1.44 -2.417471,-1.44 -0.672307,0 -2.665806,-2.249388 -4.429996,-4.99864 C 7.5475575,74.985517 7.2309478,73.802621 7.2848944,67.721362 7.3178833,64.002614 7.6931531,57.466823 8.1188273,53.197382 9.0034891,44.324372 8.0776798,40.313548 3.6483377,33.830166 1.631561,30.878139 1.2027863,29.617902 2.1071142,29.300263 2.7962014,29.058226 13.65589,26.296242 26.239756,23.16252 l 22.879755,-5.697676 2.788542,4.397074 c 3.643355,5.744974 4.201566,9.191554 3.202864,19.775537 -1.673363,17.733851 -0.867214,22.823495 4.955812,31.288686 l 3.277185,4.764188 -3.591957,0.89352 c -8.163931,2.030824 -7.911956,2.044637 -7.911956,-0.433722 0,-3.263645 -1.643743,-2.873342 -2.4,0.569875 -0.449953,2.048624 -1.234067,2.92221 -2.716277,3.026222 -3.338144,0.234249 -3.948183,0.351552 -4.963723,0.954464 -0.528,0.313466 -4.364522,1.31609 -8.525604,2.228053 -5.717805,1.253141 -7.736764,1.381169 -8.266403,0.524195 C 24.46748,84.643087 24.100442,84.753569 23.683727,85.83951 22.944509,87.765882 18.854609,87.81729 17.28,85.92 Z m 7.023112,-12.191333 c 1.153289,-0.633233 3.091761,-1.031319 4.307716,-0.884636 1.215956,0.146683 2.815225,-0.234909 3.553932,-0.847981 0.738707,-0.613073 2.191479,-0.845414 3.228382,-0.516314 1.036902,0.329101 2.151468,0.167659 2.476812,-0.358759 0.325344,-0.526418 1.1177,-0.774736 1.760791,-0.551818 0.643091,0.222918 2.63961,0.08686 4.43671,-0.302355 2.45189,-0.531026 3.355227,-1.282801 3.619105,-3.011887 0.193408,-1.267325 0.812244,-2.859209 1.375192,-3.53752 0.562948,-0.67831 0.747914,-1.679267 0.411035,-2.224348 -0.366344,-0.592758 -0.0094,-0.75961 0.888241,-0.415166 1.08976,0.41818 1.338188,0.152268 0.907151,-0.970996 -0.720366,-1.877242 -0.241574,-1.904092 -4.467764,0.250542 -1.939055,0.988587 -3.227483,2.095502 -2.863173,2.459812 0.36431,0.36431 -0.457026,0.236783 -1.825191,-0.283392 -1.915282,-0.728189 -3.125378,-0.557901 -5.259916,0.740188 -2.876585,1.749356 -3.426818,1.887409 -9.012134,2.261137 -2.80298,0.187554 -3.409251,-0.121004 -3.657083,-1.861254 -0.230917,-1.621477 0.731216,-2.675112 4.32,-4.730847 2.539396,-1.454622 4.671416,-2.675886 4.737824,-2.71392 0.06641,-0.03804 0.411502,-1.015894 0.766877,-2.173022 0.526335,-1.713789 0.281455,-2.076398 -1.320742,-1.955708 -1.081782,0.08149 -1.966876,0.488229 -1.966876,0.903869 0,0.415639 -1.486505,0.755707 -3.303344,0.755707 -1.816839,0 -3.570335,0.432 -3.896657,0.96 -1.133053,1.83332 -2.189766,0.941637 -2.811484,-2.372407 -0.34384,-1.832824 -1.486719,-3.935864 -2.53973,-4.673422 -2.039404,-1.428454 -1.948323,-1.475501 6.108936,-3.155483 0.944747,-0.196985 3.375256,-1.203765 5.401131,-2.23729 2.025876,-1.033524 3.942462,-1.620084 4.25908,-1.303466 0.316618,0.316618 1.126109,0.141676 1.798868,-0.388759 0.67276,-0.530436 2.4112,-1.248227 3.8632,-1.595091 1.452,-0.346864 2.64,-1.054431 2.64,-1.572372 0,-0.517941 0.594,-0.94171 1.32,-0.94171 0.75085,0 1.32,-0.986742 1.32,-2.288499 0,-1.950532 -0.443042,-2.269522 -3,-2.16 -1.65,0.07067 -3.570857,0.668499 -4.268572,1.328499 -1.118895,1.058414 -4.84821,1.713413 -7.251582,1.273633 -0.462084,-0.08455 -1.542084,0.440956 -2.4,1.167801 C 27.101932,36.52828 23.916,37.6953 20.88,38.394813 c -3.341693,0.769946 -5.52,1.779589 -5.52,2.558514 0,0.707671 -0.54,1.300413 -1.2,1.317205 -0.675467,0.01719 -0.360748,0.699067 0.72,1.559975 1.907338,1.519357 1.906606,1.526302 -0.111024,1.053072 -1.906528,-0.447172 -1.972234,-0.263278 -1.071923,3.000025 0.527506,1.912018 1.009467,5.420397 1.071025,7.796397 0.07856,3.032192 0.583106,4.514452 1.692526,4.972296 1.041837,0.429953 1.815773,2.393317 2.27053,5.76 0.665484,4.926759 1.905676,8.467705 2.965755,8.467705 0.280134,0 1.452935,-0.5181 2.606223,-1.151333 z"
         id="path11" />
      <path
         style="fill:#51b74d"
         d="m 166.15579,82.960002 c 0.0461,-1.118345 0.27355,-1.345823 0.58,-0.58 0.27732,0.693 0.24321,1.521 -0.0758,1.84 -0.319,0.319 -0.54589,-0.248 -0.50421,-1.26 z m -8.71579,-6.16 c -0.792,-0.51183 -1.008,-0.930599 -0.48,-0.930599 0.528,0 1.608,0.418769 2.4,0.930599 0.792,0.51183 1.008,0.9306 0.48,0.9306 -0.528,0 -1.608,-0.41877 -2.4,-0.9306 z m -35.33285,-12.96 c 0.0196,-1.584 0.23472,-2.115779 0.47812,-1.18173 0.24341,0.934049 0.2274,2.230049 -0.0356,2.88 -0.26296,0.649952 -0.46211,-0.11427 -0.44255,-1.69827 z M 137.024,57.480877 c 0.6512,-0.656081 1.42583,-0.951044 1.72141,-0.655473 0.29557,0.295572 -0.23723,0.832366 -1.184,1.192876 -1.3682,0.520978 -1.47846,0.410709 -0.53741,-0.537403 z m 7.81355,-6.360876 c -1.19412,-1.522613 -1.16016,-1.556569 0.36245,-0.362453 1.59912,1.254115 2.10766,2.042453 1.31755,2.042453 -0.19935,0 -0.95535,-0.756 -1.68,-1.68 z m 6.47102,-1.375659 c 0.27725,-0.448613 0.90625,-0.567117 1.39777,-0.263344 1.25604,0.77628 1.11461,1.079003 -0.50411,1.079003 -0.76877,0 -1.17092,-0.367046 -0.89366,-0.815659 z"
         id="path10" />
      <path
         style="fill:#a64b4e"
         d="m 181.66273,69.120002 c 0,-1.848 0.19756,-2.604 0.43903,-1.68 0.24146,0.924 0.24146,2.436 0,3.36 -0.24147,0.924 -0.43903,0.168 -0.43903,-1.68 z"
         id="path8"
         sodipodi:nodetypes="ssss" />
      <path
         style="fill:#41b03b"
         d="m 128.25643,99.779527 c -3.79989,-4.515919 -7.08273,-10.585392 -7.75592,-14.339525 -0.33138,-1.848 0.0731,-7.528814 0.89894,-12.624031 1.82059,-11.233176 0.93779,-16.816464 -3.76356,-23.802643 l -3.15133,-4.682853 23.9196,-5.971455 c 26.95256,-6.728626 24.44437,-6.863954 28.61827,1.544076 2.23182,4.495845 2.49571,11.324364 0.89676,23.205476 -1.30187,9.673607 0.41781,17.498703 5.35624,24.372632 l 3.31735,4.61751 -4.05639,1.038041 c -2.23101,0.570923 -4.59639,1.219155 -5.25639,1.440515 -0.66,0.221361 -1.22923,-0.339968 -1.26497,-1.247397 -0.0495,-1.256402 -0.31984,-1.120321 -1.13369,0.570608 -0.79803,1.658076 -1.61247,2.084005 -3.21558,1.681651 -1.18077,-0.296356 -2.29061,-0.211276 -2.46631,0.189065 -0.17569,0.400342 -4.20287,1.662663 -8.94927,2.805159 -6.7037,1.613634 -8.94106,1.825764 -10.02428,0.950456 -1.08684,-0.878236 -1.23449,-0.860594 -0.66933,0.07997 0.79641,1.325408 0.0244,1.702178 -5.29125,2.582168 -3.0769,0.50938 -3.79525,0.22134 -6.00889,-2.409424 z m 9.47042,-11.096537 c 0.89501,-1.223991 0.75108,-3.020619 -0.6729,-8.4 -0.99628,-3.763643 -2.04824,-7.490988 -2.3377,-8.282988 -0.55166,-1.509457 -1.30572,-6.964688 -1.36147,-9.849635 -0.018,-0.929298 0.64187,-2.364156 1.46629,-3.188571 0.82441,-0.824416 1.49893,-1.236881 1.49893,-0.91659 0,0.320292 0.96647,0.06511 2.14771,-0.567071 1.18124,-0.63218 4.81866,-1.214954 8.08316,-1.295052 l 5.93544,-0.145634 -2.71097,3.901276 c -1.49103,2.145702 -3.6799,4.549277 -4.86416,5.341277 -3.90113,2.608974 -7.63118,6.628612 -7.63118,8.223645 0,2.035399 6.06202,8.096355 8.09778,8.096355 0.86338,0 2.55802,0.647523 3.76588,1.43894 1.20785,0.791418 3.46065,1.607558 5.00622,1.813645 1.54557,0.206087 4.44914,1.084307 6.45238,1.951599 2.00324,0.867293 4.03851,1.331998 4.52282,1.03268 1.44285,-0.891733 2.17806,-6.90244 1.07611,-8.797723 -0.56254,-0.967527 -1.03594,-1.219141 -1.05199,-0.559141 -0.0161,0.66 -0.48669,1.2 -1.04585,1.2 -0.55916,0 -0.74967,-0.432 -0.42335,-0.96 0.32633,-0.528 0.24382,-0.993053 -0.18334,-1.033451 -0.42716,-0.0404 -1.64066,-0.293805 -2.69666,-0.563126 -1.056,-0.269322 -3.27997,-0.593385 -4.94216,-0.72014 -1.66219,-0.126756 -3.74505,-0.953349 -4.62857,-1.836874 -0.88353,-0.883525 -2.22355,-1.606409 -2.97784,-1.606409 -0.75428,0 -1.37143,-0.648 -1.37143,-1.44 0,-0.792 0.38517,-1.44 0.85593,-1.44 0.47076,0 1.17202,-1.188 1.55836,-2.64 0.38634,-1.452 0.90117,-2.1 1.14407,-1.44 0.82774,2.24909 2.11332,1.207041 2.75936,-2.236645 0.3546,-1.890155 1.14481,-3.628548 1.75603,-3.863095 1.43138,-0.549274 1.80627,-4.893891 0.49235,-5.705938 -0.55249,-0.341456 -1.42197,-1.718779 -1.93217,-3.060717 -0.51021,-1.341938 -1.18836,-2.179173 -1.50701,-1.860523 -0.31865,0.318651 -1.38656,0.147364 -2.37314,-0.380636 -1.28921,-0.689962 -1.79378,-0.635454 -1.79378,0.193777 0,0.634577 -0.28128,0.872491 -0.62508,0.528698 -0.34379,-0.343793 -1.23982,0.124207 -1.99119,1.04 -0.75136,0.915793 -1.14602,1.211544 -0.87701,0.657224 0.269,-0.55432 -0.34697,-1.529981 -1.36881,-2.168135 -1.24697,-0.778741 -1.85791,-0.820652 -1.85791,-0.127453 0,0.576807 -0.80306,0.777944 -1.81884,0.455548 -1.03079,-0.327158 -2.43707,0.04095 -3.24571,0.849594 -0.78478,0.784779 -1.6943,1.159443 -2.02116,0.832586 -0.32686,-0.326857 -0.59429,-0.103844 -0.59429,0.495585 0,0.599429 -0.648,0.84121 -1.44,0.537291 -0.792,-0.303919 -1.44,-0.07436 -1.44,0.510129 0,0.58449 -0.54637,1.062709 -1.21416,1.062709 -0.66778,0 -1.89121,1.564532 -2.71872,3.476737 -1.38577,3.202245 -1.36661,3.97422 0.24271,9.777902 0.96099,3.465641 2.40041,8.16511 3.19871,10.443264 0.79831,2.278154 2.13519,6.086098 2.97086,8.462098 1.6104,4.578725 2.83286,5.299296 4.68745,2.762988 z"
         id="path7"
         sodipodi:nodetypes="sscscsssscssssssssssssssscsssscssssssssscsssssssssssssssssssssssssssssssssss" />
      <path
         style="fill:#0f7097"
         d="m 75.951363,85.680002 c -0.118404,-2.296593 1.239984,-2.896758 2.38031,-1.051672 0.407247,0.65894 0.265055,0.848798 -0.350689,0.468247 -0.56962,-0.352045 -1.234255,0.121208 -1.476967,1.051672 -0.335821,1.287414 -0.467909,1.1755 -0.552654,-0.468247 z"
         id="path6" />
      <path
         style="fill:#504d4d"
         d="m 160.19755,96.240003 c -1.19412,-1.522614 -1.16016,-1.556569 0.36245,-0.362454 1.59912,1.254115 2.10766,2.042454 1.31755,2.042454 -0.19935,0 -0.95535,-0.756 -1.68,-1.68 z"
         id="path5"
         sodipodi:nodetypes="ssss" />
      <path
         style="fill:#443a3c"
         d="m 140.23579,101.2 c 0.0461,-1.11834 0.27354,-1.345821 0.58,-0.58 0.27732,0.693 0.24321,1.521 -0.0758,1.84 -0.319,0.319 -0.54589,-0.248 -0.50421,-1.26 z M 186.24,74.936658 c 0,-0.496839 0.42706,-1.167276 0.94901,-1.48986 0.54418,-0.336325 0.70512,0.04902 0.37729,0.903344 -0.6382,1.66312 -1.3263,1.967411 -1.3263,0.586516 z"
         id="path4"
         sodipodi:nodetypes="sssssssss" />
      <path
         style="fill:#2e2b2b"
         d="m 139.52,106.12223 c 0,-0.76877 0.36705,-1.17092 0.81566,-0.89366 0.44861,0.27725 0.56712,0.90625 0.26335,1.39777 -0.77628,1.25604 -1.07901,1.11461 -1.07901,-0.50411 z"
         id="path3"
         sodipodi:nodetypes="ssss" />
      <path
         style="fill:#231e1f"
         d="M 74.02997,197.92109 C 65.540663,178.53214 57.100667,165.2031 54.801994,167.55491 c -0.971685,0.99415 -2.439237,13.13075 -3.507282,29.0051 -0.364126,5.412 -1.038397,9.84 -1.498379,9.84 -0.459983,0 -0.836332,-0.33581 -0.836332,-0.74624 0,-0.41043 -0.841475,-6.78243 -1.869944,-14.16 C 46.061588,184.1162 44.713838,172.464 44.095058,165.6 c -0.977761,-10.84608 -1.545624,-13.3641 -4.337403,-19.23284 -3.163707,-6.6506 -15.79615,-43.46722 -15.717076,-45.80664 0.02232,-0.660283 1.031805,1.17548 2.243305,4.07948 5.21651,12.50413 9.37644,17.81913 14.733151,18.82406 6.524102,1.22393 9.782698,-5.99571 9.983126,-22.1183 0.216673,-17.429338 1.74656,-3.287886 2.381602,22.01424 l 0.578266,23.04 3.639787,5.76 c 9.937996,15.72698 16.875658,30.30229 20.692043,43.47184 2.394478,8.26284 2.998123,13.64817 1.529834,13.64817 -0.450069,0 -3.056345,-5.11152 -5.791723,-11.35892 z m 21.519128,8.71892 c -0.371103,-1.452 -0.900903,-15.8143 -1.177334,-31.91622 l -0.502601,-29.27621 -2.911589,-5.76379 C 84.993156,127.87661 80.640002,110.82007 80.640002,99.257455 c 0,-3.438148 -0.632287,-6.168092 -1.916412,-8.27425 -1.054026,-1.728761 -1.90073,-4.007203 -1.881564,-5.063203 0.02968,-1.635445 0.241992,-1.538508 1.43253,0.654076 1.706586,3.142975 4.784931,4.280365 6.888685,2.545238 1.379474,-1.137758 1.433288,-1.05813 0.486344,0.719641 -0.585617,1.099425 -1.702051,2.52786 -2.480963,3.1743 -1.2419,1.030686 -1.180696,2.025209 0.497277,8.080373 2.032538,7.33466 5.682081,15.34779 8.32766,18.28466 2.228652,2.47403 6.335811,4.46171 9.219261,4.46171 4.90188,0 8.16859,-11.55743 8.20817,-29.039998 0.0104,-4.62 -0.33042,-8.4 -0.7575,-8.4 -0.42709,0 -1.61509,-0.680036 -2.64,-1.511191 -1.02492,-0.831155 -1.33242,-1.243178 -0.68333,-0.915605 2.41114,1.216819 5.05984,-1.329173 5.05984,-4.863637 0,-2.010795 0.38937,-3.142234 0.96,-2.789567 1.2586,0.777854 1.24216,8.453847 -0.0208,9.716813 -0.66775,0.66775 -0.62024,3.256994 0.14883,8.112 0.62131,3.922153 1.19846,17.931185 1.28257,31.131185 0.14361,22.53993 0.30591,24.58403 2.66769,33.6 3.07783,11.74942 8.41297,38.80644 8.37119,42.45428 -0.0283,2.47022 -0.12753,2.53777 -1.35314,0.92103 -0.72743,-0.95958 -4.02668,-8.08758 -7.33166,-15.84 C 108.94854,171.9281 106.9099,168 105.56734,168 c -1.09506,0 -2.41808,6.73039 -4.95369,25.20001 -2.167525,15.78844 -3.536105,19.4203 -5.064552,13.44 z M 184.33875,180.32 c 0.0216,-12.53628 1.67506,-26.05534 5.23668,-42.81599 l 2.50239,-11.776 -2.3968,-6.64449 c -4.03382,-11.18269 -5.66209,-22.172878 -5.08063,-34.292444 0.41774,-8.707379 0.25894,-10.827084 -0.84283,-11.249871 -1.57536,-0.604524 -1.90311,-7.810722 -0.39756,-8.741203 0.53832,-0.332696 0.96,0.420435 0.96,1.714555 0,2.73814 3.18855,5.950171 4.97951,5.016182 0.69327,-0.361542 0.33058,0.136139 -0.80597,1.105957 -1.90928,1.629178 -2.00137,2.23796 -1.21064,8.003306 1.15002,8.385035 4.35705,18.236923 7.02624,21.584408 2.47617,3.10542 6.08722,3.57492 10.57999,1.37559 5.75692,-2.81816 7.47479,-8.332945 8.55739,-27.471368 0.44176,-7.809506 0.42525,-7.878703 -2.10063,-8.804211 -2.22033,-0.813554 -2.28471,-0.942532 -0.50343,-1.00863 3.03325,-0.112555 4.52821,-2.470252 3.85402,-6.078171 -0.5437,-2.909602 -0.48762,-2.993281 0.84048,-1.254134 1.59925,2.094223 1.93759,8.844114 0.46799,9.336516 -0.62801,0.210421 -0.58896,3.27863 0.11405,8.96 1.20165,9.711246 0.67366,30.166788 -1.11506,43.199998 -1.08897,7.93457 -0.97875,10.12924 1.34995,26.88 3.44704,24.79513 5.49151,42.95461 4.90235,43.54377 -0.89786,0.89786 -2.0395,-1.22858 -7.14249,-13.30377 -7.8583,-18.59509 -11.52296,-25.92 -12.9678,-25.92 -3.5261,0 -7.14488,8.49112 -11.95303,28.04664 -3.53558,14.37983 -4.87821,14.54395 -4.85417,0.59336 z m -27.1607,-4.73423 C 155.34589,164.84894 152.55614,157.44 150.34547,157.44 c -0.81495,0 -4.40628,4.90728 -8.25513,11.28 -3.74696,6.204 -6.59208,10.2 -6.3225,8.88 2.15811,-10.56717 5.6985,-24.02605 7.23209,-27.493 1.74373,-3.94199 1.77033,-4.63315 0.44809,-11.64365 -1.74331,-9.24301 -4.10466,-32.88806 -3.23046,-32.34778 0.35389,0.21872 1.13829,2.89219 1.7431,5.94105 0.60482,3.04886 2.15889,7.81931 3.4535,10.601 3.9103,8.40194 8.8932,8.45359 13.41852,0.13909 3.90586,-7.17635 6.91498,-24.144084 4.44009,-25.036707 -0.48797,-0.176 -0.0401,-1.359492 0.99533,-2.629981 l 1.88256,-2.309981 -0.48064,3.749981 c -0.26435,2.062489 -0.72991,7.469838 -1.03456,12.016328 -0.6138,9.15978 -3.14701,20.85821 -6.18656,28.56961 l -1.98792,5.04337 2.16427,6.90034 c 1.80588,5.75768 2.1516,8.96695 2.08774,19.38033 -0.10582,17.25548 -1.3695,19.79567 -3.53494,7.10577 z m -8.2548,-53.03726 c -3.03386,-3.65558 -1.43257,-12.99227 2.48614,-14.49602 5.67092,-2.17613 9.38865,7.67998 5.00094,13.25805 -2.15311,2.73723 -5.74931,3.33185 -7.48708,1.23797 z m -54.754601,-9.65415 c -4.586883,-4.88251 -3.02112,-15.934357 2.25749,-15.934357 1.263257,0 2.996141,0.26835 3.850851,0.596334 3.95085,1.516082 5.77229,11.364423 2.86858,15.510063 -2.00982,2.86941 -6.194976,2.78921 -8.976921,-0.17204 z m -59.481245,-0.91874 c -2.932625,-3.12164 -4.26496,-8.34799 -2.985805,-11.71243 1.062638,-2.794945 3.513388,-5.140846 5.424745,-5.192656 2.342593,-0.0635 6.97765,4.934676 7.586668,8.181026 1.648594,8.78776 -4.741736,14.34848 -10.025608,8.72406 z m 101.784326,-8.18153 c -0.94069,-0.59621 -0.61692,-0.94485 1.2,-1.29217 1.69209,-0.32347 2.48827,-0.0575 2.48827,0.83121 0,1.47021 -1.75068,1.68901 -3.68827,0.46096 z m 60.35269,-6.809669 c -4.96547,-4.965474 -3.20487,-15.50723 3.30195,-19.77066 1.38172,-0.905339 3.14928,-1.276007 4.31716,-0.905336 2.42187,0.768673 4.84384,5.216842 4.81539,8.843904 -0.0452,5.758374 -5.45135,13.727674 -9.31252,13.727674 -0.67452,0 -2.07941,-0.853012 -3.12198,-1.895582 z M 17.869223,90.061225 c -3.802745,-3.802745 -4.94199,-7.299499 -1.24735,-3.828564 2.915637,2.739098 6.231201,2.706314 7.348212,-0.07266 0.477518,-1.188 0.877489,-1.512 0.888826,-0.72 0.01134,0.792 -0.776131,2.93635 -1.749927,4.765223 l -1.770539,3.325222 z m 27.674262,-5.070692 c -1.819645,-1.37631 -1.813464,-1.410187 0.262739,-1.44 2.350616,-0.03375 4.098104,-2.550788 4.142969,-5.967419 0.02644,-2.013764 0.123991,-2.060167 1.035877,-0.492768 0.57186,0.982945 0.730133,3.367236 0.366425,5.52 -0.701315,4.151052 -2.494912,4.886088 -5.80801,2.380187 z"
         id="path2" />
    </g>
  </g>
</svg>
